<?xml version="1.0" encoding="utf-8"?>
<!-- Generator: Adobe Illustrator 16.2.1, SVG Export Plug-In . SVG Version: 6.00 Build 0)  -->
<!DOCTYPE svg PUBLIC "-//W3C//DTD SVG 1.1//EN" "http://www.w3.org/Graphics/SVG/1.1/DTD/svg11.dtd">
<svg version="1.1" id="Layer_1" xmlns="http://www.w3.org/2000/svg" xmlns:xlink="http://www.w3.org/1999/xlink" x="0px" y="0px"
	 width="424.04px" height="800px" viewBox="0 0 424.04 800" enable-background="new 0 0 424.04 800" xml:space="preserve">
<g>
	<g>
		<circle fill="#01A2A6" cx="214.374" cy="207.343" r="181.69"/>
		<path fill-rule="evenodd" clip-rule="evenodd" fill="#FFFFFF" d="M244.522,210.114L244.522,210.114l-28.973,11.989
			c-0.006,0.002-0.01,0.004-0.014,0.006l-0.014,0.006v-0.001c-0.354,0.146-0.742,0.229-1.146,0.229
			c-0.406,0-0.793-0.083-1.148-0.229v0.001l-0.012-0.006c-0.006-0.002-0.01-0.004-0.014-0.006l-28.975-11.988v-0.001
			c-1.087-0.451-1.853-1.521-1.853-2.771c0-1.657,1.343-3,3-3c0.406,0,0.793,0.083,1.147,0.229l0,0l0.014,0.006
			c0.004,0.001,0.008,0.003,0.013,0.005l27.828,11.514l27.826-11.514c0.004-0.002,0.008-0.004,0.014-0.005l0.014-0.006l0,0
			c0.354-0.146,0.74-0.229,1.146-0.229c1.656,0,3,1.343,3,3C246.376,208.594,245.61,209.663,244.522,210.114 M244.522,197.114
			L244.522,197.114l-28.973,11.989c-0.006,0.002-0.01,0.004-0.014,0.006l-0.014,0.006v-0.001c-0.354,0.146-0.742,0.229-1.146,0.229
			c-0.406,0-0.793-0.083-1.148-0.229v0.001l-0.012-0.006c-0.006-0.002-0.01-0.004-0.014-0.006l-28.975-11.988v-0.001
			c-1.087-0.451-1.853-1.521-1.853-2.771s0.766-2.32,1.853-2.771l0,0l28.975-11.989c0.004-0.002,0.008-0.004,0.014-0.006
			l0.012-0.005l0,0c0.355-0.146,0.742-0.229,1.148-0.229c0.404,0,0.793,0.083,1.146,0.229l0,0l0.014,0.005
			c0.004,0.002,0.008,0.004,0.014,0.006l28.973,11.989l0,0c1.088,0.451,1.854,1.521,1.854,2.771S245.61,196.663,244.522,197.114
			 M185.375,217.343c0.406,0,0.793,0.083,1.147,0.229l0,0l0.014,0.006c0.004,0.001,0.008,0.003,0.013,0.005l27.828,11.514
			l27.826-11.514c0.004-0.002,0.008-0.004,0.014-0.005l0.014-0.006l0,0c0.354-0.146,0.74-0.229,1.146-0.229c1.656,0,3,1.343,3,3
			c0,1.25-0.766,2.32-1.854,2.771v0.001l-28.973,11.988c-0.006,0.002-0.01,0.004-0.014,0.006l-0.014,0.006v-0.001
			c-0.354,0.146-0.742,0.229-1.146,0.229c-0.406,0-0.793-0.083-1.148-0.229v0.001l-0.012-0.006c-0.006-0.002-0.01-0.004-0.014-0.006
			l-28.975-11.988v-0.001c-1.087-0.451-1.853-1.521-1.853-2.771C182.375,218.686,183.717,217.343,185.375,217.343"/>
	</g>
	<g>
		<circle fill="#29D9C2" cx="214.375" cy="589.24" r="187.547"/>
		<g>
			<g>
				<circle fill="#FFFFFF" cx="288.671" cy="662.714" r="49.896"/>
				<text transform="matrix(1 0 0 1 265.7646 668.4189)" fill="#29D9C2" font-family="'HelveticaNeue-Bold'" font-size="15.4726">Model</text>
			</g>
			<g>
				<circle fill="#FFFFFF" cx="141.33" cy="662.714" r="49.896"/>
				<text transform="matrix(1 0 0 1 123.9155 668.4189)" fill="#29D9C2" font-family="'HelveticaNeue-Bold'" font-size="15.4726">View</text>
			</g>
			<g>
				<circle fill="#FFFFFF" cx="215.875" cy="573.229" r="49.896"/>
				<text transform="matrix(1 0 0 1 179.0659 578.9316)" fill="#29D9C2" font-family="'HelveticaNeue-Bold'" font-size="15.4726">Controller</text>
			</g>
		</g>
		<path fill-rule="evenodd" clip-rule="evenodd" fill="#FFFFFF" d="M245.374,493.973h-57.999c-1.657,0-3-1.342-3-3v-50
			c0-1.656,1.343-3,3-3h57.999c1.656,0,3,1.344,3,3v50C248.374,492.631,247.03,493.973,245.374,493.973 M233.374,490.973h12v-26
			h-1.6h-10.4V490.973z M187.375,490.973h42.999v-26h-42.999V490.973z M190.375,440.973c-1.657,0-3,1.344-3,3c0,1.658,1.343,3,3,3
			s3-1.342,3-3C193.375,442.316,192.032,440.973,190.375,440.973 M199.375,440.973c-1.657,0-3,1.344-3,3c0,1.658,1.343,3,3,3
			s3-1.342,3-3C202.375,442.316,201.032,440.973,199.375,440.973 M208.375,440.973c-1.658,0-3,1.344-3,3c0,1.658,1.342,3,3,3
			c1.655,0,2.999-1.342,2.999-3C211.374,442.316,210.03,440.973,208.375,440.973 M242.374,449.973h-51.999h-3v12h42.999h3h10.4h1.6
			v-12H242.374z"/>
	</g>
</g>
</svg>
