<?xml version="1.0" encoding="utf-8"?>
<!-- Generator: Adobe Illustrator 16.2.1, SVG Export Plug-In . SVG Version: 6.00 Build 0)  -->
<!DOCTYPE svg PUBLIC "-//W3C//DTD SVG 1.1//EN" "http://www.w3.org/Graphics/SVG/1.1/DTD/svg11.dtd">
<svg version="1.1" id="Layer_1" xmlns="http://www.w3.org/2000/svg" xmlns:xlink="http://www.w3.org/1999/xlink" x="0px" y="0px"
	 width="537.74px" height="532.329px" viewBox="0 0 537.74 532.329" enable-background="new 0 0 537.74 532.329"
	 xml:space="preserve">
<g>
	<g>
		<circle fill="#01A2A6" cx="268.87" cy="266.165" r="239.189"/>
		<path fill-rule="evenodd" clip-rule="evenodd" fill="#FFFFFF" d="M299.017,145.554L299.017,145.554l-28.973,11.989
			c-0.006,0.002-0.01,0.004-0.014,0.006l-0.014,0.006v-0.001c-0.354,0.146-0.741,0.229-1.146,0.229
			c-0.406,0-0.793-0.083-1.147-0.229v0.001l-0.013-0.006c-0.006-0.002-0.01-0.004-0.014-0.006l-28.974-11.988v-0.001
			c-1.087-0.451-1.853-1.521-1.853-2.771c0-1.657,1.343-3,3-3c0.406,0,0.793,0.083,1.147,0.229l0,0l0.014,0.006
			c0.004,0.001,0.008,0.003,0.013,0.005l27.827,11.514l27.826-11.514c0.004-0.002,0.008-0.004,0.014-0.005l0.014-0.006l0,0
			c0.354-0.146,0.74-0.229,1.146-0.229c1.656,0,3,1.343,3,3C300.87,144.033,300.104,145.103,299.017,145.554 M299.017,132.554
			L299.017,132.554l-28.973,11.989c-0.006,0.002-0.01,0.004-0.014,0.006l-0.014,0.006v-0.001c-0.354,0.146-0.741,0.229-1.146,0.229
			c-0.406,0-0.793-0.083-1.147-0.229v0.001l-0.013-0.006c-0.006-0.002-0.01-0.004-0.014-0.006l-28.974-11.988v-0.001
			c-1.087-0.451-1.853-1.521-1.853-2.771s0.766-2.32,1.853-2.771l0,0l28.974-11.989c0.004-0.002,0.008-0.004,0.014-0.006
			l0.013-0.005l0,0c0.354-0.146,0.741-0.229,1.147-0.229c0.405,0,0.793,0.083,1.146,0.229l0,0l0.014,0.005
			c0.004,0.002,0.008,0.004,0.014,0.006l28.973,11.989l0,0c1.088,0.451,1.854,1.521,1.854,2.771S300.104,132.103,299.017,132.554
			 M239.87,152.782c0.406,0,0.793,0.083,1.147,0.229l0,0l0.014,0.006c0.004,0.001,0.008,0.003,0.013,0.005l27.827,11.514
			l27.826-11.514c0.004-0.002,0.008-0.004,0.014-0.005l0.014-0.006l0,0c0.354-0.146,0.74-0.229,1.146-0.229c1.656,0,3,1.343,3,3
			c0,1.25-0.766,2.32-1.854,2.771v0.001l-28.973,11.988c-0.006,0.002-0.01,0.004-0.014,0.006l-0.014,0.006v-0.001
			c-0.354,0.146-0.741,0.229-1.146,0.229c-0.406,0-0.793-0.083-1.147-0.229v0.001l-0.013-0.006c-0.006-0.002-0.01-0.004-0.014-0.006
			l-28.974-11.988v-0.001c-1.087-0.451-1.853-1.521-1.853-2.771C236.87,154.125,238.212,152.782,239.87,152.782"/>
	</g>
	<g>
		<circle fill="#29D9C2" cx="268.87" cy="364.81" r="93.798"/>
		<path fill-rule="evenodd" clip-rule="evenodd" fill="#FFFFFF" d="M297.87,392.809h-58c-1.657,0-3-1.342-3-3v-50
			c0-1.656,1.343-3,3-3h58c1.656,0,3,1.344,3,3v50C300.87,391.467,299.526,392.809,297.87,392.809 M285.87,389.809h12v-26h-1.6
			h-10.4V389.809z M239.87,389.809h43v-26h-43V389.809z M242.87,339.809c-1.657,0-3,1.344-3,3c0,1.658,1.343,3,3,3s3-1.342,3-3
			C245.87,341.153,244.527,339.809,242.87,339.809 M251.87,339.809c-1.657,0-3,1.344-3,3c0,1.658,1.343,3,3,3s3-1.342,3-3
			C254.871,341.153,253.527,339.809,251.87,339.809 M260.871,339.809c-1.658,0-3,1.344-3,3c0,1.658,1.342,3,3,3c1.656,0,3-1.342,3-3
			C263.87,341.153,262.526,339.809,260.871,339.809 M294.87,348.809h-52h-3v12h43h3h10.4h1.6v-12H294.87z"/>
	</g>
</g>
</svg>
