<?xml version="1.0" encoding="utf-8"?>
<!-- Generator: Adobe Illustrator 16.2.1, SVG Export Plug-In . SVG Version: 6.00 Build 0)  -->
<!DOCTYPE svg PUBLIC "-//W3C//DTD SVG 1.1//EN" "http://www.w3.org/Graphics/SVG/1.1/DTD/svg11.dtd">
<svg version="1.1" id="Layer_1" xmlns="http://www.w3.org/2000/svg" xmlns:xlink="http://www.w3.org/1999/xlink" x="0px" y="0px"
	 width="227px" height="355.918px" viewBox="0 0 227 355.918" enable-background="new 0 0 227 355.918" xml:space="preserve">
<g>
	<g>
		<rect x="0.5" fill="#FFFFFF" width="226" height="225"/>
		<text transform="matrix(1 0 0 1 79.7031 101.9316)" font-family="'Helvetica'" font-size="32">Data</text>
		<text transform="matrix(1 0 0 1 78.8198 140.332)" font-family="'Helvetica'" font-size="32">layer</text>
	</g>
	<g>
		<path fill="#FFFFFF" d="M73.854,247.592c-0.119-0.079-0.24-0.159-0.367-0.231c-0.137-0.075-0.271-0.142-0.412-0.208
			c-0.076-0.035-0.147-0.08-0.224-0.111c-0.044-0.017-0.088-0.024-0.128-0.043c-0.147-0.058-0.299-0.104-0.451-0.148
			c-0.125-0.036-0.247-0.074-0.373-0.102c-0.147-0.035-0.299-0.055-0.449-0.078c-0.13-0.017-0.256-0.037-0.386-0.049
			c-0.153-0.012-0.31-0.01-0.466-0.008c-0.123,0-0.247-0.002-0.371,0.008c-0.16,0.01-0.317,0.035-0.478,0.059
			c-0.12,0.018-0.237,0.033-0.357,0.062c-0.156,0.031-0.31,0.08-0.464,0.127c-0.119,0.035-0.237,0.071-0.354,0.115
			c-0.054,0.02-0.109,0.032-0.162,0.053c-0.096,0.039-0.182,0.096-0.273,0.139c-0.117,0.057-0.231,0.113-0.346,0.177
			c-0.138,0.076-0.271,0.164-0.401,0.251c-0.104,0.072-0.208,0.141-0.306,0.219c-0.132,0.102-0.256,0.213-0.378,0.325
			c-0.058,0.052-0.12,0.097-0.176,0.151L39.38,275.451c-2.268,2.268-2.268,5.938,0,8.201c2.262,2.264,5.938,2.264,8.199,0
			l17.252-17.256v53.717c0,2.004,1.014,3.77,2.558,4.811c0.925,0.625,2.042,0.994,3.245,0.994c1.601,0,3.051-0.651,4.098-1.701
			c1.051-1.049,1.703-2.5,1.703-4.104h-0.005V266.4l17.254,17.254c2.262,2.262,5.934,2.266,8.199,0
			c1.135-1.133,1.702-2.619,1.702-4.104c0-1.485-0.563-2.969-1.694-4.1l-27.16-27.154c-0.06-0.057-0.123-0.102-0.184-0.157
			c-0.115-0.108-0.235-0.214-0.363-0.312C74.078,247.744,73.965,247.668,73.854,247.592z"/>
		<path fill="#FFFFFF" d="M153.148,324.938c0.121,0.08,0.24,0.16,0.367,0.231c0.137,0.076,0.271,0.142,0.41,0.207
			c0.076,0.037,0.148,0.08,0.227,0.113c0.043,0.016,0.088,0.022,0.127,0.041c0.146,0.059,0.301,0.104,0.451,0.149
			c0.125,0.036,0.248,0.073,0.373,0.103c0.146,0.033,0.301,0.055,0.447,0.077c0.133,0.017,0.258,0.036,0.389,0.048
			c0.15,0.012,0.309,0.01,0.465,0.008c0.123,0,0.248,0.002,0.371-0.008c0.16-0.01,0.316-0.033,0.479-0.058
			c0.119-0.019,0.236-0.034,0.357-0.062c0.156-0.031,0.309-0.08,0.463-0.127c0.119-0.037,0.238-0.072,0.355-0.117
			c0.053-0.021,0.107-0.031,0.158-0.051c0.1-0.041,0.186-0.098,0.275-0.142c0.115-0.056,0.23-0.11,0.346-0.177
			c0.139-0.074,0.271-0.162,0.4-0.25c0.104-0.072,0.207-0.141,0.307-0.219c0.131-0.103,0.256-0.213,0.377-0.326
			c0.061-0.051,0.119-0.096,0.178-0.15l27.148-27.15c2.27-2.269,2.27-5.938,0-8.201c-2.262-2.264-5.938-2.264-8.199,0l-17.25,17.256
			v-53.717c0-2.004-1.014-3.771-2.559-4.812c-0.926-0.626-2.043-0.994-3.244-0.994c-1.602,0-3.053,0.652-4.1,1.701
			c-1.053,1.049-1.701,2.499-1.701,4.104h0.004v53.713l-17.254-17.254c-2.262-2.262-5.936-2.267-8.199,0
			c-1.135,1.133-1.701,2.619-1.701,4.104s0.562,2.969,1.693,4.1l27.158,27.153c0.061,0.058,0.125,0.103,0.186,0.157
			c0.115,0.107,0.234,0.214,0.361,0.312C152.926,324.787,153.037,324.862,153.148,324.938z"/>
	</g>
</g>
<text transform="matrix(1 0 0 1 128.0693 355.918)" fill="#FFFFFF" font-family="'Helvetica-Bold'" font-size="18">INPUT</text>
<text transform="matrix(1 0 0 1 31.3369 355.918)" fill="#FFFFFF" font-family="'Helvetica-Bold'" font-size="18">OUTPUT</text>
</svg>
