<?xml version="1.0" encoding="utf-8"?>
<!-- Generator: Adobe Illustrator 16.2.1, SVG Export Plug-In . SVG Version: 6.00 Build 0)  -->
<!DOCTYPE svg PUBLIC "-//W3C//DTD SVG 1.1//EN" "http://www.w3.org/Graphics/SVG/1.1/DTD/svg11.dtd">
<svg version="1.1" id="Layer_1" xmlns="http://www.w3.org/2000/svg" xmlns:xlink="http://www.w3.org/1999/xlink" x="0px" y="0px"
	 width="227px" height="355.918px" viewBox="0 0 227 355.918" enable-background="new 0 0 227 355.918" xml:space="preserve">
<g>
	<g>
		<rect x="0.5" y="130.418" fill="#FFFFFF" width="226" height="225"/>
		<text transform="matrix(1 0 0 1 72.3916 232.3496)" font-family="'Helvetica'" font-size="32">Client</text>
		<text transform="matrix(1 0 0 1 59.9468 270.75)" font-family="'Helvetica'" font-size="32">runtime</text>
	</g>
	<g>
		<path fill="#FFFFFF" d="M73.895,33.593c-0.119-0.08-0.24-0.16-0.367-0.232c-0.137-0.076-0.271-0.142-0.412-0.208
			c-0.076-0.036-0.147-0.08-0.224-0.112c-0.044-0.016-0.088-0.024-0.128-0.042c-0.147-0.058-0.299-0.104-0.451-0.149
			c-0.125-0.036-0.247-0.074-0.373-0.102c-0.147-0.034-0.299-0.054-0.449-0.078c-0.13-0.016-0.256-0.036-0.386-0.048
			c-0.153-0.012-0.31-0.01-0.466-0.008c-0.123,0-0.247-0.002-0.371,0.008c-0.16,0.01-0.317,0.034-0.478,0.058
			c-0.12,0.018-0.237,0.034-0.357,0.062c-0.156,0.032-0.31,0.08-0.464,0.127c-0.119,0.036-0.237,0.072-0.354,0.116
			c-0.054,0.02-0.109,0.032-0.162,0.052c-0.096,0.04-0.182,0.096-0.273,0.14c-0.117,0.056-0.231,0.112-0.346,0.176
			c-0.138,0.076-0.271,0.164-0.401,0.251c-0.104,0.072-0.208,0.14-0.306,0.218c-0.132,0.102-0.256,0.214-0.378,0.326
			c-0.058,0.052-0.12,0.096-0.176,0.152L39.422,61.452c-2.268,2.268-2.268,5.938,0,8.201c2.262,2.264,5.938,2.264,8.199,0
			l17.252-17.256v53.717c0,2.004,1.014,3.77,2.558,4.811c0.925,0.625,2.042,0.993,3.245,0.993c1.601,0,3.051-0.651,4.098-1.7
			c1.051-1.049,1.703-2.5,1.703-4.104h-0.005V52.401l17.254,17.254c2.262,2.262,5.934,2.266,8.199,0
			c1.135-1.133,1.702-2.619,1.702-4.104c0-1.485-0.563-2.969-1.694-4.1l-27.16-27.153c-0.06-0.058-0.123-0.102-0.184-0.158
			c-0.115-0.108-0.235-0.214-0.363-0.312C74.119,33.745,74.007,33.669,73.895,33.593z"/>
		<path fill="#FFFFFF" d="M153.189,110.939c0.121,0.08,0.24,0.16,0.367,0.231c0.137,0.076,0.272,0.142,0.411,0.208
			c0.076,0.036,0.148,0.08,0.226,0.112c0.043,0.016,0.088,0.023,0.127,0.042c0.147,0.058,0.301,0.104,0.451,0.149
			c0.125,0.036,0.248,0.074,0.373,0.102c0.147,0.034,0.301,0.055,0.449,0.078c0.131,0.016,0.256,0.036,0.387,0.048
			c0.152,0.012,0.31,0.01,0.465,0.008c0.123,0,0.248,0.002,0.371-0.008c0.16-0.01,0.317-0.034,0.479-0.058
			c0.12-0.019,0.237-0.034,0.357-0.062c0.156-0.031,0.31-0.079,0.464-0.127c0.118-0.036,0.237-0.072,0.354-0.116
			c0.053-0.021,0.108-0.032,0.16-0.052c0.098-0.04,0.184-0.097,0.274-0.141c0.116-0.056,0.231-0.111,0.346-0.176
			c0.138-0.075,0.271-0.163,0.401-0.251c0.104-0.072,0.207-0.141,0.306-0.218c0.132-0.103,0.256-0.214,0.378-0.326
			c0.059-0.052,0.119-0.096,0.176-0.151l27.15-27.151c2.268-2.268,2.268-5.938,0-8.201c-2.262-2.264-5.938-2.264-8.199,0
			l-17.251,17.256V38.418c0-2.004-1.014-3.77-2.558-4.811c-0.926-0.626-2.043-0.994-3.245-0.994c-1.601,0-3.052,0.652-4.099,1.701
			c-1.052,1.049-1.701,2.499-1.701,4.104h0.004v53.713l-17.254-17.254c-2.262-2.262-5.935-2.266-8.199,0
			c-1.135,1.133-1.702,2.619-1.702,4.104s0.563,2.969,1.694,4.1l27.158,27.153c0.061,0.058,0.125,0.102,0.185,0.157
			c0.116,0.108,0.235,0.214,0.362,0.312C152.967,110.787,153.078,110.863,153.189,110.939z"/>
	</g>
</g>
<text transform="matrix(1 0 0 1 129.4102 14.8643)" fill="#FFFFFF" font-family="'Helvetica-Bold'" font-size="18">INPUT</text>
<text transform="matrix(1 0 0 1 33.6777 14.8643)" fill="#FFFFFF" font-family="'Helvetica-Bold'" font-size="18">OUTPUT</text>
</svg>
